<?xml version="1.0" encoding="utf-8"?>
<!-- Generator: Adobe Illustrator 24.1.1, SVG Export Plug-In . SVG Version: 6.00 Build 0)  -->
<svg version="1.1" id="Capa_1" xmlns="http://www.w3.org/2000/svg" xmlns:xlink="http://www.w3.org/1999/xlink" x="0px" y="0px"
	 viewBox="0 0 516 247" style="enable-background:new 0 0 516 247;" xml:space="preserve">
<style type="text/css">
	.st0{fill:#264E9B;}
	.st1{fill:#E5352B;}
	.st2{fill:#8EA5CD;}
	.st3{fill:#FFFFFF;}
	.st4{fill-rule:evenodd;clip-rule:evenodd;fill:#FFFFFF;}
	.st5{fill-rule:evenodd;clip-rule:evenodd;fill:#C3C4CA;}
	.st6{fill:#020203;}
	.st7{fill-rule:evenodd;clip-rule:evenodd;fill:#DF0A14;}
	.st8{fill-rule:evenodd;clip-rule:evenodd;fill:#E0272A;}
	.st9{fill:#DADADA;}
</style>
<g>
	<g>
		<g>
			<path class="st0" d="M75.79,109.44c0-0.62-0.21-1.1-0.62-1.43c-0.41-0.33-1.15-0.68-2.21-1.05c-1.07-0.37-1.91-0.73-2.53-1.09
				c-1.7-0.98-2.54-2.3-2.54-3.95c0-0.86,0.23-1.63,0.68-2.31c0.45-0.68,1.11-1.2,1.96-1.58c0.85-0.38,1.81-0.57,2.87-0.57
				c1.07,0,2.02,0.21,2.85,0.62s1.48,1,1.94,1.75s0.69,1.61,0.69,2.56H75.8c0-0.73-0.22-1.3-0.65-1.7s-1.04-0.61-1.81-0.61
				c-0.75,0-1.34,0.17-1.75,0.51c-0.42,0.34-0.63,0.79-0.63,1.34c0,0.52,0.24,0.95,0.73,1.3s1.21,0.68,2.16,0.99
				c1.75,0.56,3.02,1.26,3.82,2.09c0.8,0.83,1.2,1.87,1.2,3.11c0,1.38-0.49,2.46-1.47,3.25c-0.98,0.79-2.29,1.18-3.95,1.18
				c-1.15,0-2.19-0.22-3.14-0.67s-1.66-1.06-2.16-1.85c-0.5-0.78-0.74-1.69-0.74-2.72h3.09c0,1.76,0.98,2.64,2.95,2.64
				c0.73,0,1.3-0.16,1.71-0.48C75.59,110.45,75.79,110.01,75.79,109.44z"/>
			<path class="st0" d="M85.87,113.84c-1.63,0-2.95-0.53-3.97-1.6c-1.02-1.07-1.53-2.49-1.53-4.26v-0.31c0-1.19,0.22-2.25,0.65-3.19
				s1.04-1.66,1.83-2.17c0.79-0.51,1.69-0.76,2.7-0.76c1.52,0,2.71,0.51,3.58,1.53c0.87,1.02,1.31,2.47,1.31,4.35v1.29h-7.06
				c0.1,0.77,0.38,1.39,0.87,1.86c0.48,0.47,1.09,0.7,1.83,0.7c1.14,0,2.03-0.44,2.68-1.33l1.46,1.74c-0.44,0.67-1.05,1.2-1.8,1.57
				S86.79,113.84,85.87,113.84z M85.53,104.1c-0.59,0-1.06,0.21-1.43,0.64c-0.37,0.43-0.6,1.03-0.7,1.83h4.12v-0.25
				c-0.01-0.7-0.19-1.25-0.53-1.63S86.16,104.1,85.53,104.1z"/>
			<path class="st0" d="M91.68,107.61c0-1.82,0.4-3.28,1.21-4.39s1.9-1.67,3.28-1.67c1.22,0,2.16,0.45,2.84,1.34l0.12-1.12h2.69
				v11.46c0,1.04-0.22,1.94-0.66,2.71c-0.44,0.77-1.06,1.35-1.86,1.75c-0.8,0.4-1.74,0.6-2.81,0.6c-0.81,0-1.61-0.17-2.38-0.52
				c-0.77-0.35-1.36-0.79-1.75-1.34l1.31-1.93c0.74,0.88,1.63,1.33,2.69,1.33c0.79,0,1.4-0.22,1.83-0.67
				c0.44-0.45,0.66-1.09,0.66-1.91v-0.64c-0.68,0.83-1.58,1.24-2.7,1.24c-1.33,0-2.41-0.56-3.23-1.67
				c-0.82-1.11-1.24-2.59-1.24-4.43V107.61z M94.65,107.84c0,1.08,0.2,1.92,0.6,2.53c0.4,0.61,0.96,0.92,1.66,0.92
				c0.9,0,1.55-0.36,1.94-1.09v-4.99c-0.4-0.72-1.04-1.09-1.92-1.09c-0.71,0-1.27,0.31-1.68,0.93
				C94.85,105.68,94.65,106.61,94.65,107.84z"/>
			<path class="st0" d="M110.74,112.42c-0.73,0.95-1.74,1.42-3.03,1.42c-1.19,0-2.1-0.37-2.72-1.1c-0.63-0.73-0.94-1.8-0.96-3.21
				v-7.77h2.96v7.67c0,1.24,0.53,1.85,1.58,1.85c1,0,1.69-0.37,2.07-1.12v-8.4h2.97v11.85h-2.79L110.74,112.42z"/>
			<path class="st0" d="M118.58,101.77l0.09,1.37c0.79-1.06,1.86-1.59,3.19-1.59c1.18,0,2.05,0.37,2.63,1.11
				c0.57,0.74,0.87,1.84,0.88,3.31v7.66h-2.96v-7.58c0-0.67-0.14-1.16-0.41-1.46c-0.27-0.3-0.73-0.45-1.36-0.45
				c-0.83,0-1.46,0.38-1.88,1.14v8.36h-2.96v-11.85H118.58z"/>
			<path class="st0" d="M127.15,107.61c0-1.85,0.39-3.32,1.16-4.41s1.84-1.64,3.18-1.64c1.08,0,1.97,0.43,2.68,1.29V96.8h2.97v16.82
				h-2.68l-0.14-1.26c-0.74,0.99-1.69,1.48-2.85,1.48c-1.31,0-2.35-0.55-3.14-1.65S127.15,109.57,127.15,107.61z M130.11,107.84
				c0,1.11,0.18,1.96,0.54,2.56s0.89,0.89,1.58,0.89c0.92,0,1.56-0.41,1.94-1.24v-4.68c-0.37-0.83-1.01-1.24-1.92-1.24
				C130.83,104.13,130.11,105.37,130.11,107.84z"/>
			<path class="st0" d="M145.87,113.62c-0.14-0.28-0.24-0.64-0.3-1.06c-0.72,0.85-1.65,1.28-2.8,1.28c-1.09,0-1.99-0.34-2.7-1.01
				s-1.07-1.52-1.07-2.54c0-1.26,0.44-2.22,1.31-2.89s2.13-1.01,3.78-1.02h1.36v-0.68c0-0.55-0.13-0.99-0.39-1.31
				s-0.68-0.49-1.25-0.49c-0.5,0-0.89,0.13-1.17,0.38c-0.28,0.26-0.43,0.61-0.43,1.05h-2.96c0-0.69,0.2-1.32,0.59-1.91
				c0.4-0.58,0.96-1.04,1.68-1.37c0.72-0.33,1.54-0.5,2.44-0.5c1.37,0,2.45,0.37,3.26,1.1c0.8,0.73,1.2,1.77,1.2,3.09v5.14
				c0.01,1.12,0.15,1.98,0.44,2.55v0.19H145.87z M143.42,111.42c0.44,0,0.84-0.1,1.21-0.31c0.37-0.21,0.64-0.49,0.82-0.84v-2.04
				h-1.11c-1.48,0-2.27,0.55-2.37,1.64l-0.01,0.19c0,0.39,0.13,0.72,0.39,0.98C142.61,111.29,142.97,111.42,143.42,111.42z"/>
			<path class="st0" d="M165.1,106.71h-5.91v4.27h6.93v2.64h-10.01V97.67h9.99v2.66h-6.91v3.8h5.91V106.71z"/>
			<path class="st0" d="M170.87,113.62h-2.97V96.8h2.97V113.62z"/>
			<path class="st0" d="M178.41,113.84c-1.63,0-2.95-0.53-3.97-1.6c-1.02-1.07-1.53-2.49-1.53-4.26v-0.31
				c0-1.19,0.22-2.25,0.65-3.19s1.04-1.66,1.83-2.17c0.79-0.51,1.69-0.76,2.7-0.76c1.52,0,2.71,0.51,3.58,1.53
				c0.87,1.02,1.31,2.47,1.31,4.35v1.29h-7.06c0.1,0.77,0.38,1.39,0.87,1.86c0.48,0.47,1.09,0.7,1.83,0.7
				c1.14,0,2.03-0.44,2.68-1.33l1.46,1.74c-0.44,0.67-1.05,1.2-1.8,1.57S179.34,113.84,178.41,113.84z M178.07,104.1
				c-0.59,0-1.06,0.21-1.43,0.64c-0.37,0.43-0.6,1.03-0.7,1.83h4.12v-0.25c-0.01-0.7-0.19-1.25-0.53-1.63S178.7,104.1,178.07,104.1z
				"/>
			<path class="st0" d="M189.27,111.29c0.55,0,0.99-0.16,1.33-0.48s0.52-0.75,0.53-1.28h2.78c-0.01,0.8-0.21,1.54-0.62,2.21
				c-0.4,0.67-0.96,1.19-1.66,1.56c-0.7,0.37-1.48,0.55-2.32,0.55c-1.59,0-2.84-0.54-3.75-1.62c-0.92-1.08-1.37-2.56-1.37-4.46
				v-0.21c0-1.83,0.45-3.28,1.36-4.37c0.91-1.09,2.16-1.63,3.74-1.63c1.39,0,2.5,0.42,3.34,1.27c0.84,0.84,1.26,1.97,1.28,3.37
				h-2.78c-0.01-0.62-0.19-1.12-0.53-1.5s-0.79-0.58-1.35-0.58c-0.69,0-1.21,0.27-1.56,0.81c-0.35,0.54-0.53,1.41-0.53,2.62v0.33
				c0,1.22,0.17,2.1,0.52,2.63S188.56,111.29,189.27,111.29z"/>
			<path class="st0" d="M200.22,111.29c0.55,0,0.99-0.16,1.33-0.48s0.52-0.75,0.53-1.28h2.78c-0.01,0.8-0.21,1.54-0.62,2.21
				c-0.4,0.67-0.96,1.19-1.66,1.56c-0.7,0.37-1.48,0.55-2.32,0.55c-1.59,0-2.84-0.54-3.75-1.62c-0.92-1.08-1.37-2.56-1.37-4.46
				v-0.21c0-1.83,0.45-3.28,1.36-4.37c0.91-1.09,2.16-1.63,3.74-1.63c1.39,0,2.5,0.42,3.34,1.27c0.84,0.84,1.26,1.97,1.28,3.37
				h-2.78c-0.01-0.62-0.19-1.12-0.53-1.5s-0.79-0.58-1.35-0.58c-0.69,0-1.21,0.27-1.56,0.81c-0.35,0.54-0.53,1.41-0.53,2.62v0.33
				c0,1.22,0.17,2.1,0.52,2.63S199.51,111.29,200.22,111.29z"/>
			<path class="st0" d="M206.54,98.7c0-0.47,0.15-0.87,0.45-1.17s0.7-0.46,1.21-0.46c0.51,0,0.91,0.15,1.21,0.46s0.45,0.7,0.45,1.17
				c0,0.48-0.15,0.88-0.46,1.18c-0.3,0.31-0.71,0.46-1.21,0.46s-0.9-0.15-1.2-0.46S206.54,99.19,206.54,98.7z M209.68,113.62h-2.97
				v-11.85h2.97V113.62z"/>
			<path class="st0" d="M211.66,107.59c0-1.18,0.21-2.22,0.64-3.14c0.42-0.92,1.03-1.63,1.83-2.14c0.8-0.5,1.72-0.76,2.77-0.76
				c1.5,0,2.72,0.49,3.67,1.47s1.47,2.31,1.58,3.99l0.02,0.81c0,1.82-0.48,3.28-1.43,4.38c-0.95,1.1-2.23,1.65-3.82,1.65
				c-1.6,0-2.88-0.55-3.83-1.64c-0.95-1.1-1.43-2.58-1.43-4.47V107.59z M214.63,107.81c0,1.13,0.2,1.99,0.59,2.58
				s0.96,0.89,1.7,0.89c0.72,0,1.28-0.29,1.68-0.88s0.6-1.53,0.6-2.82c0-1.1-0.2-1.96-0.6-2.57s-0.97-0.91-1.7-0.91
				c-0.72,0-1.29,0.3-1.68,0.9C214.82,105.61,214.63,106.55,214.63,107.81z M217.49,96.8h3.23l-2.84,3.4h-2.41L217.49,96.8z"/>
			<path class="st0" d="M226.72,101.77l0.09,1.37c0.79-1.06,1.86-1.59,3.19-1.59c1.18,0,2.05,0.37,2.63,1.11
				c0.57,0.74,0.87,1.84,0.88,3.31v7.66h-2.96v-7.58c0-0.67-0.14-1.16-0.41-1.46c-0.27-0.3-0.73-0.45-1.36-0.45
				c-0.83,0-1.46,0.38-1.88,1.14v8.36h-2.96v-11.85H226.72z"/>
		</g>
	</g>
	<g>
		<g>
			<path class="st1" d="M72.77,136.12v5.97H68.8v-17.59h6.57c1.26,0,2.37,0.25,3.34,0.74c0.97,0.5,1.72,1.2,2.25,2.12
				c0.53,0.91,0.8,1.95,0.8,3.11c0,1.72-0.58,3.09-1.73,4.11c-1.15,1.03-2.73,1.54-4.73,1.54H72.77z M72.77,132.84h2.6
				c0.77,0,1.36-0.21,1.76-0.62c0.4-0.41,0.6-0.99,0.6-1.74c0-0.82-0.21-1.48-0.62-1.97s-0.98-0.74-1.7-0.75h-2.65V132.84z"/>
			<path class="st1" d="M90.54,135.86H88.4v6.22h-3.97v-17.59h6.48c1.95,0,3.48,0.46,4.58,1.39c1.1,0.92,1.65,2.23,1.65,3.92
				c0,1.22-0.23,2.24-0.7,3.04c-0.46,0.8-1.19,1.46-2.18,1.96l3.44,7.1v0.18h-4.25L90.54,135.86z M88.4,132.6h2.51
				c0.75,0,1.32-0.21,1.7-0.64c0.38-0.42,0.57-1.02,0.57-1.77s-0.19-1.35-0.58-1.79c-0.38-0.43-0.95-0.65-1.7-0.65H88.4V132.6z"/>
			<path class="st1" d="M110.3,134.62h-6.24v4.21h7.37v3.26h-11.34v-17.59h11.37v3.27h-7.4v3.71h6.24V134.62z"/>
			<path class="st1" d="M122.1,137.41c0-0.62-0.21-1.1-0.62-1.45c-0.41-0.35-1.13-0.7-2.17-1.08c-1.03-0.37-1.88-0.73-2.53-1.08
				c-2.13-1.12-3.2-2.66-3.2-4.62c0-0.97,0.27-1.83,0.8-2.58c0.53-0.75,1.28-1.33,2.26-1.74c0.97-0.41,2.07-0.62,3.28-0.62
				c1.18,0,2.24,0.23,3.18,0.68c0.94,0.45,1.67,1.09,2.19,1.93c0.52,0.83,0.78,1.79,0.78,2.86h-3.96c0-0.72-0.21-1.27-0.62-1.67
				c-0.41-0.39-0.97-0.59-1.67-0.59c-0.71,0-1.27,0.17-1.68,0.5c-0.41,0.33-0.62,0.76-0.62,1.27c0,0.45,0.23,0.86,0.68,1.23
				c0.45,0.37,1.25,0.75,2.39,1.14c1.14,0.39,2.07,0.81,2.8,1.26c1.78,1.1,2.67,2.61,2.67,4.53c0,1.54-0.54,2.75-1.63,3.63
				c-1.09,0.88-2.57,1.32-4.47,1.32c-1.33,0-2.54-0.25-3.63-0.77s-1.9-1.21-2.44-2.1c-0.55-0.89-0.82-1.92-0.82-3.08h3.98
				c0,0.94,0.23,1.64,0.68,2.08c0.46,0.45,1.2,0.67,2.22,0.67c0.66,0,1.17-0.15,1.55-0.45C121.91,138.38,122.1,137.96,122.1,137.41z
				"/>
			<path class="st1" d="M132.89,142.08h-3.96v-17.59h3.96V142.08z"/>
			<path class="st1" d="M136.21,142.08v-17.59h5.3c1.46,0,2.76,0.35,3.92,1.06s2.07,1.7,2.72,2.98c0.65,1.28,0.98,2.72,0.99,4.32
				v0.81c0,1.61-0.32,3.05-0.96,4.33s-1.53,2.28-2.69,3c-1.16,0.72-2.45,1.09-3.87,1.09H136.21z M140.18,127.77v11.06h1.38
				c1.14,0,2.01-0.43,2.62-1.3c0.61-0.87,0.92-2.15,0.92-3.86v-0.76c0-1.7-0.31-2.98-0.92-3.84c-0.61-0.86-1.5-1.29-2.67-1.29
				H140.18z"/>
			<path class="st1" d="M161.95,134.62h-6.24v4.21h7.37v3.26h-11.34v-17.59h11.37v3.27h-7.4v3.71h6.24V134.62z"/>
			<path class="st1" d="M179,142.08h-3.95l-5.84-10.95v10.95h-3.97v-17.59h3.97l5.82,10.95v-10.95H179V142.08z"/>
			<path class="st1" d="M195.39,136.13c-0.05,1.22-0.36,2.31-0.93,3.24c-0.57,0.94-1.36,1.67-2.38,2.18s-2.19,0.77-3.5,0.77
				c-2.16,0-3.87-0.75-5.11-2.26c-1.24-1.51-1.87-3.63-1.87-6.38v-0.87c0-1.72,0.28-3.23,0.84-4.52c0.56-1.29,1.37-2.29,2.43-3
				c1.06-0.7,2.28-1.06,3.66-1.06c2,0,3.6,0.56,4.82,1.69c1.21,1.12,1.9,2.67,2.07,4.64h-3.96c-0.03-1.07-0.28-1.84-0.76-2.31
				c-0.48-0.47-1.2-0.7-2.17-0.7c-0.99,0-1.71,0.39-2.17,1.18c-0.46,0.79-0.7,2.05-0.72,3.78v1.24c0,1.88,0.22,3.22,0.66,4.02
				c0.44,0.81,1.2,1.21,2.28,1.21c0.91,0,1.61-0.23,2.09-0.69s0.74-1.19,0.77-2.19H195.39z"/>
			<path class="st1" d="M202.06,142.08h-3.96v-17.59h3.96V142.08z"/>
			<path class="st1" d="M214.93,138.8h-5.44l-0.95,3.29h-4.24l6.04-17.59h3.73l6.08,17.59h-4.26L214.93,138.8z M210.44,135.52h3.54
				l-1.78-6.1L210.44,135.52z"/>
			<path class="st1" d="M225.88,138.82h6.91v3.26h-10.88v-17.59h3.97V138.82z"/>
		</g>
	</g>
	<g>
		<g>
			<path class="st0" d="M95.57,159.46v2.05h-0.23c-1.05,0.02-1.9,0.31-2.55,0.88s-1.03,1.36-1.16,2.37
				c0.62-0.68,1.41-1.02,2.36-1.02c1.02,0,1.83,0.39,2.44,1.17c0.6,0.78,0.9,1.81,0.9,3.09c0,0.82-0.17,1.55-0.5,2.22
				c-0.33,0.66-0.8,1.18-1.4,1.54c-0.61,0.37-1.29,0.55-2.05,0.55c-1.24,0-2.24-0.46-3-1.38s-1.14-2.15-1.14-3.68v-0.9
				c0-1.36,0.24-2.57,0.72-3.61c0.48-1.04,1.17-1.85,2.07-2.42c0.9-0.57,1.95-0.86,3.14-0.87H95.57z M93.29,165.75
				c-0.38,0-0.72,0.1-1.03,0.31c-0.31,0.21-0.53,0.49-0.68,0.83v0.76c0,0.83,0.15,1.48,0.46,1.95s0.74,0.7,1.29,0.7
				c0.5,0,0.91-0.21,1.21-0.63c0.31-0.42,0.46-0.97,0.46-1.64c0-0.68-0.16-1.23-0.47-1.65C94.24,165.96,93.82,165.75,93.29,165.75z"
				/>
			<path class="st0" d="M109.7,172.14v-12.56h3.62c1.03,0,1.96,0.25,2.77,0.75c0.81,0.5,1.45,1.21,1.91,2.12
				c0.46,0.92,0.69,1.96,0.69,3.13v0.58c0,1.17-0.22,2.21-0.67,3.11s-1.08,1.61-1.9,2.11s-1.74,0.75-2.77,0.76H109.7z
				 M112.12,161.68v8.38h1.17c0.95,0,1.67-0.33,2.17-0.99s0.76-1.61,0.77-2.84v-0.66c0-1.28-0.25-2.24-0.74-2.9
				s-1.22-0.99-2.17-0.99H112.12z"/>
			<path class="st0" d="M130.82,166.7h-4.65v3.36h5.46v2.08h-7.88v-12.56h7.86v2.1h-5.44v2.99h4.65V166.7z"/>
			<path class="st0" d="M148.52,159.58h2.42v8.69c0,0.8-0.17,1.5-0.5,2.12s-0.8,1.08-1.4,1.42c-0.6,0.33-1.28,0.5-2.04,0.5
				c-1.24,0-2.21-0.34-2.91-1.01c-0.69-0.68-1.04-1.63-1.04-2.87h2.44c0,0.62,0.12,1.07,0.36,1.36s0.62,0.44,1.15,0.44
				c0.46,0,0.83-0.17,1.11-0.51c0.27-0.34,0.41-0.82,0.41-1.45V159.58z"/>
			<path class="st0" d="M165.21,159.58v8.27c0,1.37-0.4,2.46-1.21,3.26c-0.8,0.8-1.9,1.2-3.3,1.2c-1.37,0-2.46-0.39-3.27-1.16
				c-0.81-0.78-1.22-1.84-1.23-3.2v-8.37h2.42v8.29c0,0.82,0.18,1.42,0.55,1.8c0.37,0.38,0.88,0.57,1.53,0.57
				c1.36,0,2.05-0.76,2.07-2.29v-8.36H165.21z"/>
			<path class="st0" d="M180.06,172.14h-2.42l-4.71-8.26v8.26h-2.42v-12.56h2.42l4.72,8.28v-8.28h2.41V172.14z"/>
			<path class="st0" d="M188.06,172.14h-2.42v-12.56h2.42V172.14z"/>
			<path class="st0" d="M203.26,166.15c0,1.24-0.2,2.32-0.61,3.25c-0.41,0.93-0.99,1.65-1.76,2.16c-0.76,0.51-1.63,0.76-2.62,0.76
				c-0.97,0-1.84-0.25-2.61-0.75c-0.76-0.5-1.36-1.21-1.78-2.14c-0.42-0.93-0.63-2-0.64-3.2v-0.62c0-1.24,0.21-2.32,0.63-3.26
				c0.42-0.94,1.01-1.66,1.77-2.17c0.76-0.5,1.63-0.75,2.61-0.75c0.98,0,1.85,0.25,2.61,0.75c0.76,0.5,1.35,1.22,1.77,2.17
				c0.42,0.94,0.63,2.02,0.63,3.25V166.15z M200.81,165.58c0-1.32-0.22-2.32-0.66-3c-0.44-0.68-1.07-1.03-1.89-1.03
				c-0.81,0-1.44,0.34-1.88,1.01c-0.44,0.68-0.66,1.67-0.67,2.97v0.61c0,1.28,0.22,2.28,0.66,2.98c0.44,0.71,1.08,1.06,1.91,1.06
				c0.81,0,1.44-0.34,1.87-1.02c0.44-0.68,0.66-1.67,0.66-2.98V165.58z"/>
		</g>
	</g>
	<g>
		<g>
			<g>
				<path class="st0" d="M51.87,40.94c-14.09,20.5-21.72,45.76-21.52,71.34c0.05,5.89,0.51,11.81,1.37,17.62l9.92-1.85
					c-0.77-5.23-1.18-10.55-1.22-15.85c-0.18-23.21,6.72-46.13,19.47-64.75L51.87,40.94z"/>
			</g>
		</g>
		<g>
			<g>
				<path class="st0" d="M114.46,231.52c26.49,9,55.8,6.96,80.97-5.64l-4.42-9.67c-22.81,11.37-49.35,13.22-73.35,5.11
					L114.46,231.52z"/>
			</g>
		</g>
		<g>
			<g>
				<g>
					<path class="st2" d="M82.66,25.88l4.67,6.58C74.24,43.05,64.02,57.15,57.77,73.25c-3.37,8.67-5.56,17.8-6.52,27.15l-7.68-0.9
						c1.04-10.13,3.42-20.03,7.07-29.41C57.41,52.63,68.48,37.35,82.66,25.88z"/>
				</g>
			</g>
		</g>
		<g>
			<g>
				<g>
					<path class="st2" d="M163.83,213.96l1.3,8.14c-30.14,5.49-60.52-3.77-83.37-25.42l5.13-6.18
						C107.97,210.48,136.01,219.03,163.83,213.96z"/>
				</g>
			</g>
		</g>
		<g>
			<g>
				<g>
					<path class="st2" d="M218.62,30.08c5.29,4.86,10.12,10.32,14.34,16.24c5.23,7.31,9.54,15.31,12.84,23.78
						c3.67,9.44,6.06,19.44,7.09,29.7c0.72,7.21,0.77,14.5,0.13,21.65l-7.69-0.78c0.59-6.6,0.55-13.33-0.12-19.99
						c-0.95-9.48-3.15-18.7-6.54-27.41c-3.04-7.81-7.02-15.19-11.84-21.93c-3.9-5.46-8.36-10.5-13.24-14.99L218.62,30.08z"/>
				</g>
			</g>
		</g>
		<path class="st0" d="M253.19,85.87c-3.07-13.68-8.52-26.37-16.21-37.75c-4.8-7.11-10.43-13.61-16.76-19.32
			c-3.91-3.53-8.08-6.76-12.41-9.61l5.13-9.25c4.81,3.15,9.44,6.73,13.78,10.65c6.95,6.27,13.14,13.42,18.42,21.24
			c8.49,12.57,14.5,26.6,17.87,41.7L253.19,85.87z"/>
	</g>
	<g>
		<polygon class="st2" points="163.15,34.39 150.51,31.37 150.51,17.35 163.15,20.37 		"/>
		<polygon class="st2" points="118.44,32.34 128.89,24 128.89,76.76 118.44,68.42 		"/>
		<g>
			<path class="st0" d="M155.55,45.98c-0.53-0.02-0.94,0.23-1.23,0.77c-0.29,0.54-0.44,1.33-0.44,2.38v5.08
				c0,1.07,0.15,1.87,0.45,2.41c0.3,0.53,0.71,0.78,1.25,0.75c0.52-0.03,0.92-0.32,1.2-0.87c0.28-0.55,0.42-1.34,0.42-2.38v-4.94
				c0-1.02-0.14-1.8-0.43-2.35C156.47,46.29,156.06,46,155.55,45.98z"/>
			<path class="st0" d="M131.06,24v52.76l50.57-8.34V32.34L131.06,24z M148.66,60.69l-12.21,0.96v-2.99l5.7-6.72
				c0.73-0.88,1.25-1.66,1.59-2.35c0.33-0.68,0.5-1.27,0.5-1.77c0-0.72-0.15-1.3-0.45-1.74c-0.3-0.44-0.79-0.67-1.46-0.7
				c-0.64-0.03-1.15,0.23-1.5,0.78c-0.36,0.55-0.54,1.27-0.54,2.15l-4.28-0.09l-0.03-0.08c-0.04-1.84,0.55-3.37,1.76-4.57
				c1.19-1.18,2.73-1.7,4.6-1.56c1.91,0.14,3.34,0.73,4.33,1.78c0.97,1.03,1.46,2.4,1.46,4.1c0,1.14-0.27,2.15-0.8,3.03
				c-0.54,0.89-1.54,2.22-3.03,4.02l-2.12,2.82l0.02,0.06l6.49-0.34V60.69z M160.3,53.81c0,1.94-0.42,3.49-1.26,4.64
				c-0.86,1.18-2.01,1.83-3.47,1.94c-1.52,0.12-2.76-0.36-3.72-1.47c-0.97-1.13-1.46-2.76-1.46-4.88v-4.7
				c0-2.12,0.49-3.75,1.45-4.89c0.95-1.12,2.19-1.62,3.71-1.51c1.47,0.1,2.62,0.75,3.48,1.92c0.85,1.15,1.27,2.69,1.27,4.63V53.81z
				 M170.11,59.01l-8.15,0.64v-2.42l3.77-5.43c0.48-0.72,0.84-1.36,1.06-1.92c0.22-0.56,0.33-1.04,0.33-1.45
				c0-0.59-0.1-1.07-0.3-1.42c-0.2-0.36-0.53-0.54-0.98-0.56c-0.43-0.02-0.76,0.2-1,0.65c-0.24,0.45-0.36,1.04-0.36,1.75l-2.82-0.06
				l-0.02-0.07c-0.03-1.49,0.36-2.73,1.15-3.71c0.78-0.97,1.8-1.4,3.05-1.32c1.27,0.09,2.24,0.57,2.91,1.42
				c0.66,0.84,0.99,1.96,0.99,3.36c0,0.94-0.18,1.77-0.54,2.5c-0.37,0.73-1.04,1.82-2.04,3.29l-1.42,2.29l0.02,0.05l4.37-0.23V59.01
				z M176.47,58.51l-2.26,0.18v-9.88l-2.05-0.08v-2.57l4.31-1.72V58.51z"/>
		</g>
	</g>
</g>
<g>
	<g>
		<g>
			<rect x="380.95" y="70" class="st3" width="55.66" height="46"/>
			<polygon class="st4" points="408.41,139.48 399.61,107.57 403.84,103.11 406.67,111.68 411.29,112.54 414.65,107.97 
				420.22,111.57 424.09,107.9 419.87,85.18 425.94,83.6 438.35,132.04 408.41,139.48 			"/>
			<path class="st5" d="M380.95,128.02h24.3l-5.64-20.45l0.28-0.3l-6.27-2.69l-7.02,3.49l-4.25-27.12l0.17-10.78L380.78,70
				L380.95,128.02L380.95,128.02z M437.32,128.02h1.8L438.78,70h-13.8h-1.52l6.15,6.95l-2.28,9.22l-0.33,1.6L437.32,128.02
				L437.32,128.02z M423.51,104.8l-0.93,4.52l1.5-1.43L423.51,104.8L423.51,104.8z M421.36,110.49l-2.28,0.35l1.14,0.74
				L421.36,110.49L421.36,110.49z M411.72,111.96l-0.66,0.1l-4.96-2.13l0.58,1.75l4.62,0.86L411.72,111.96L411.72,111.96z"/>
			<path class="st6" d="M372.85,135.69c-3.5-3.81-8.08-5.71-13.75-5.71c-5.66,0-10.24,1.9-13.75,5.71
				c-3.5,3.81-5.24,8.82-5.24,15.01c0,6.15,1.73,11.13,5.24,14.95c3.5,3.81,8.09,5.72,13.75,5.72c5.67,0,10.25-1.9,13.75-5.72
				c3.5-3.81,5.24-8.8,5.24-14.95C378.09,144.51,376.35,139.5,372.85,135.69L372.85,135.69z M479.98,159.78H468.3v-3.81h10.31
				v-10.84H468.3v-3.99h11.33v-11.15h-24.64v41.41h24.99V159.78L479.98,159.78z M448.43,134.14c-2.63-2.78-6.01-4.18-10.12-4.18
				h-0.49l0.53,2.07l-18.08,4.49v34.85h13.3v-12.46h6.93c3.56,0,6.44-1.28,8.62-3.87c2.18-2.57,3.26-5.96,3.26-10.19
				C452.38,140.5,451.06,136.93,448.43,134.14L448.43,134.14z M438.68,147.34L438.68,147.34c-0.66,0.72-1.55,1.08-2.67,1.08h-2.44
				v-7.3h2.99c0.87,0,1.61,0.32,2.21,0.95c0.61,0.64,0.9,1.42,0.9,2.35C439.67,145.64,439.35,146.62,438.68,147.34L438.68,147.34z
				 M405.8,129.99h-0.61v20.91l-11.29-20.91h-13.02v41.39h12.95l-0.07-20.23l10.97,20.23h13.27v-34.29l-9.6,2.38L405.8,129.99
				L405.8,129.99z M363.51,156.39L363.51,156.39c-1.16,1.49-2.64,2.22-4.41,2.22c-1.83,0-3.33-0.74-4.52-2.22
				c-1.2-1.47-1.79-3.37-1.79-5.68c0-2.31,0.59-4.23,1.79-5.75c1.19-1.51,2.7-2.28,4.52-2.28c1.77,0,3.26,0.75,4.41,2.22
				c1.16,1.49,1.75,3.4,1.75,5.75C365.26,152.99,364.67,154.91,363.51,156.39L363.51,156.39z"/>
			<path class="st7" d="M380.95,70v19.78c0,0,0.55,4.46,2.03,10.09c1.47,5.64,1.99,10.68,6.77,9.9c0,0,3.16-0.29,3.72-2.35
				c0,0,2.93,1.81,5.76,1.01c2.82-0.8,4-2.86,4-2.86s1.43,5.49,2.04,6.85c0.62,1.36,3.35,2.35,5.47,1.83c2.13-0.5,4.52-3.7,4.52-3.7
				s2.56,3.56,6.62,1.94c0,0,4.2-1.93,3.56-4.88c-0.66-2.96-6.25-26.2-6.25-26.2l-3.66,1.09l5.83,23.21c0,0,1.01,3.31-1.08,3.9
				c0,0-1.91,0.43-2.45-1.29c-0.53-1.7-4.29-17.49-4.29-17.49l-4.15,1.2l3.15,13.41c0,0,1.18,3.96-1.46,4.88
				c0,0-3.18,1.13-4.08-2.64c-0.92-3.76-3.64-14.31-3.64-14.31l-4.38,1.12l1.42,5.02c0,0,1.15,3.86-1.29,4.89
				c-2.43,1.01-3.75-0.78-4.05-1.85c-0.3-1.06-1.62-7.02-1.62-7.02l-3.77,0.7l1.41,6.37c0,0,0.68,2.36-1.03,2.81
				c-1.69,0.45-2.22-1.44-2.44-2.07c-0.21-0.63-2.71-8.06-3.18-10.9c-0.48-2.85-1.85-12.43-1.92-14.36
				c-0.06-1.92-0.34-4.74,0.51-8.09H380.95L380.95,70z"/>
			<path class="st8" d="M425.94,83.54l1.67,6.6c0,0,5.92-7.71,3.67-14c0,0-1.29-3.66-3.62-6.14h-5.15c0.06,0.06,4.96,4.91,4.81,8.76
				C427.16,82.63,425.94,83.54,425.94,83.54L425.94,83.54z"/>
		</g>
	</g>
</g>
<rect x="298.33" y="50.38" class="st9" width="5.33" height="149.4"/>
</svg>
